<?xml version="1.0" encoding="utf-8"?>
<!-- Generator: Adobe Illustrator 25.2.1, SVG Export Plug-In . SVG Version: 6.00 Build 0)  -->
<svg version="1.1" xmlns="http://www.w3.org/2000/svg" xmlns:xlink="http://www.w3.org/1999/xlink" x="0px" y="0px"
	 viewBox="0 0 32 32" style="enable-background:new 0 0 32 32;" xml:space="preserve">
<style type="text/css">
	.st0{fill:#E0D33E;}
	.st1{fill:#231815;}
	.st2{display:none;}
	.st3{display:inline;}
</style>
<g id="touch_x5F_icon">
</g>
<g id="favicon">
	<g>
		<g>
			<polygon class="st0" points="4.7,3.8 27.3,12.8 4.7,22 			"/>
			<path class="st1" d="M4.7,23.7c-0.2,0-0.7,0-1-0.2C3.2,23.2,3,22.5,3,22V3.8c0-0.5,0.2-1.2,0.7-1.5s1.2-0.5,1.7-0.2l22.4,9
				c0.7,0.2,1.2,1,1.2,1.7c0,0.7-0.5,1.5-1.2,1.7L5.4,23.7C5.1,23.7,4.9,23.7,4.7,23.7z M6.6,6.5v12.9l15.9-6.6L6.6,6.5z"/>
		</g>
		<rect x="3" y="15.7" class="st1" width="3.6" height="14.3"/>
	</g>
</g>
<g id="favicon_x5F_ver2" class="st2">
	<g class="st3">
		<g>
			<g>
				<polygon class="st0" points="3.8,2.9 28.2,12.5 3.8,22.4 				"/>
				<path class="st1" d="M3.8,24.2c-0.3,0-0.8,0-1-0.3c-0.5-0.3-0.8-1-0.8-1.6V2.9c0-0.5,0.3-1.3,0.8-1.6s1.3-0.5,1.8-0.3l24.1,9.6
					c0.8,0.3,1.3,1,1.3,1.8c0,0.8-0.5,1.6-1.3,1.8L4.6,24.2C4.4,24.2,4.1,24.2,3.8,24.2z M5.9,5.8v13.8l17.1-7L5.9,5.8z"/>
			</g>
			<rect x="2" y="15.7" class="st1" width="3.9" height="15.3"/>
		</g>
		<g>
			<rect x="16.3" y="25.3" class="st1" width="0.8" height="5.2"/>
			<polygon class="st1" points="22,30.9 19.2,29.6 19.6,28.8 22,30 24.5,28.8 24.9,29.6 			"/>
			<polyline class="st1" points="14.1,26.2 16.8,24.8 19.6,26.3 19.2,26.9 16.8,25.7 14.1,27 			"/>
			<polyline class="st1" points="14.1,27 11.5,25.7 9.8,26.6 15,29.2 11.5,30.9 8.7,29.6 9,28.8 11.5,30 13.2,29.2 8,26.6 
				11.5,24.8 14.1,26.2 			"/>
			<path class="st1" d="M19.4,29.6c-0.1,0-0.2,0-0.2-0.1c-0.1-0.1-0.2-0.2-0.2-0.3v-2.6c0-0.2,0.1-0.3,0.2-0.4l2.6-1.3l0.4,0.7
				l-2.4,1.2v1.7l4.7-2.3l0.4,0.7l-5.3,2.6C19.5,29.6,19.4,29.6,19.4,29.6z"/>
			<g>
				<polygon class="st0" points="24.7,25.3 29.6,27.2 24.7,29.2 				"/>
				<path class="st1" d="M24.7,29.6c-0.1,0-0.2,0-0.2-0.1c-0.1-0.1-0.2-0.2-0.2-0.3v-3.9c0-0.1,0.1-0.3,0.2-0.3s0.3-0.1,0.4-0.1
					l4.9,1.9c0.2,0.1,0.3,0.2,0.3,0.4s-0.1,0.3-0.3,0.4l-4.9,2C24.8,29.6,24.7,29.6,24.7,29.6z M25.1,25.8v2.8l3.5-1.4L25.1,25.8z"
					/>
			</g>
			<rect x="24.3" y="27.8" class="st1" width="0.8" height="3.1"/>
		</g>
	</g>
</g>
<g id="grig_x5F_touch_x5F_icon" class="st2">
</g>
<g id="grid_x5F_favicon" class="st2">
</g>
</svg>
